<svg width="19" height="19" viewBox="0 0 19 19" fill="none" xmlns="http://www.w3.org/2000/svg">
<path d="M8.61621 9.04897C8.58865 7.74334 8.31191 6.45498 7.80088 5.25316C4.53954 6.77579 2.14382 9.64869 1.32489 13.0387C1.80415 14.1366 2.49914 15.127 3.36862 15.9511C4.19546 13.0765 6.06713 10.6147 8.61621 9.04897ZM7.29084 4.2225C6.74457 3.27091 6.04841 2.4136 5.22916 1.68358C1.96064 3.47196 0.0282605 7.17441 0.739433 11.0995C1.93909 8.11528 4.27375 5.641 7.29084 4.2225ZM14.029 10.1515C14.3379 6.56751 13.0485 3.05898 10.527 0.656515C9.99904 0.595466 8.67368 0.459003 6.97477 0.961761C9.05338 3.11531 10.2513 5.96824 10.3331 8.95991C11.4777 9.58923 12.7323 9.99369 14.029 10.1515ZM9.55007 10.4926C8.4329 11.1708 7.45525 12.0556 6.66946 13.0998C9.61472 15.1575 13.2963 15.7967 16.6367 14.8163C17.3552 13.8538 17.8708 12.7555 18.1524 11.5879C17.2026 11.8299 16.2268 11.9553 15.2466 11.9614C13.2855 11.9578 11.3352 11.455 9.55007 10.4926ZM6.01935 14.073C5.4734 15.0067 5.09626 16.0265 4.86639 17.0967C6.45968 18.0744 8.32111 18.5241 10.1851 18.3816C12.0492 18.2391 13.8206 17.5116 15.2466 16.303C11.1915 16.8812 7.94455 15.4124 6.01935 14.073ZM12.4953 1.12336C14.4816 3.65151 15.4586 6.91226 15.1748 10.2305C16.269 10.2328 17.3566 10.0606 18.3966 9.72051C18.3966 9.64869 18.4074 9.57687 18.4074 9.50505C18.4074 5.63381 15.9399 2.35512 12.4953 1.12336Z" fill="black"/>
</svg>
