<svg width="13" height="13" viewBox="0 0 13 13" fill="none" xmlns="http://www.w3.org/2000/svg">
<path d="M5.85507 6.17085C5.83496 5.21809 5.63302 4.27794 5.2601 3.40093C2.88021 4.51204 1.13198 6.60849 0.534383 9.08228C0.884108 9.88343 1.39127 10.6062 2.02575 11.2076C2.62912 9.10985 3.99494 7.3134 5.85507 6.17085ZM4.88791 2.64883C4.48928 1.95442 3.98127 1.32882 3.38344 0.796103C0.998306 2.10114 -0.411808 4.80293 0.107156 7.66719C0.982579 5.48951 2.68625 3.68395 4.88791 2.64883ZM9.80497 6.97536C10.0304 4.36005 9.08942 1.79977 7.24946 0.0466256C6.86417 0.00207618 5.89701 -0.0975047 4.65726 0.269372C6.17409 1.84088 7.04824 3.92275 7.10793 6.10586C7.94321 6.5651 8.8587 6.86024 9.80497 6.97536ZM6.53654 7.22431C5.72131 7.71918 5.00789 8.36488 4.43448 9.12683C6.58372 10.6284 9.27028 11.0949 11.7078 10.3795C12.2322 9.67708 12.6084 8.87561 12.8139 8.02358C12.1208 8.20016 11.4087 8.29168 10.6935 8.29612C9.26241 8.2935 7.83919 7.92662 6.53654 7.22431ZM3.96007 9.837C3.56167 10.5183 3.28646 11.2626 3.11872 12.0435C4.28139 12.757 5.63973 13.0851 6.99997 12.9811C8.3602 12.8771 9.65285 12.3463 10.6935 11.4644C7.73435 11.8863 5.36494 10.8145 3.96007 9.837ZM8.68579 0.387297C10.1352 2.23217 10.8481 4.61163 10.6411 7.03301C11.4396 7.0347 12.2332 6.90908 12.9921 6.6609C12.9921 6.60848 13 6.55607 13 6.50366C13 3.67871 11.1994 1.28615 8.68579 0.387297Z" fill="black"/>
</svg>
