<svg width="18" height="18" viewBox="0 0 18 18" fill="none" xmlns="http://www.w3.org/2000/svg">
<path d="M4.5 2.25V4.5H2.25V2.25H4.5ZM1.125 1.125V5.625H5.625V1.125H1.125ZM10.125 3.9375V6.1875H7.875V3.9375H10.125ZM6.75 2.8125V7.3125H11.25V2.8125H6.75ZM4.5 9V11.25H2.25V9H4.5ZM1.125 7.875V12.375H5.625V7.875H1.125Z" fill="#FC4F4F"/>
<path d="M12.375 5.625V9H9V12.375H5.625V16.875H16.875V5.625H12.375ZM10.125 10.125H12.375V12.375H10.125V10.125ZM9 15.75H6.75V13.5H9V15.75ZM12.375 15.75H10.125V13.5H12.375V15.75ZM15.75 15.75H13.5V13.5H15.75V15.75ZM15.75 12.375H13.5V10.125H15.75V12.375ZM13.5 9V6.75H15.75V9H13.5Z" fill="#FC4F4F"/>
</svg>
