<svg width="29" height="29" viewBox="0 0 29 29" fill="none" xmlns="http://www.w3.org/2000/svg">
<path d="M17.11 12.5667L11.0683 8.25293C10.2225 7.64876 9.09873 7.64876 8.26498 8.25293L2.22331 12.5667C1.5829 13.0258 1.20831 13.7508 1.20831 14.5363V24.1667C1.20831 24.8313 1.75206 25.375 2.41665 25.375H7.24998V18.125H12.0833V25.375H16.9166C17.5812 25.375 18.125 24.8313 18.125 24.1667V14.5363C18.125 13.7508 17.7504 13.0258 17.11 12.5667Z" fill="black"/>
<path d="M25.4112 3.625H14.4637C13.1466 3.625 12.0833 4.68833 12.0833 6.00542L12.1921 6.11417C12.2887 6.17458 12.3854 6.22292 12.4821 6.28333L18.5237 10.5971C19.4421 11.2496 20.0946 12.2163 20.3846 13.2917H22.9583V15.7083H20.5416V18.125H22.9583V20.5417H20.5416V25.375H25.4112C26.7283 25.375 27.7916 24.3117 27.7916 22.9946V6.00542C27.7916 4.68833 26.7283 3.625 25.4112 3.625ZM22.9583 10.875H20.5416V8.45833H22.9583V10.875Z" fill="black"/>
</svg>
