<svg width="33" height="33" viewBox="0 0 33 33" fill="none" xmlns="http://www.w3.org/2000/svg">
<g filter="url(#filter0_d_1_463)">
<path d="M25.645 8.52495C24.715 6.97495 23.01 6.19995 21.15 6.19995H11.85C9.98999 6.19995 8.28499 6.97495 7.35499 8.52495C3.78999 13.95 3.01499 22.1649 5.49499 23.8699C7.97499 25.5749 13.555 18.1349 16.5 18.1349C19.445 18.1349 24.87 25.5749 27.505 23.8699C29.985 22.1649 29.21 13.95 25.645 8.52495ZM13.4 13.95H11.85V15.5H10.3V13.95H8.74999V12.4H10.3V10.85H11.85V12.4H13.4V13.95ZM21.77 14.7249C21.77 15.5 21.15 16.1199 20.375 16.1199C19.6 16.1199 18.98 15.5 18.98 14.7249C18.98 13.95 19.6 13.33 20.375 13.33C21.15 13.33 21.77 13.95 21.77 14.7249ZM24.715 11.625C24.715 12.4 24.095 13.0199 23.32 13.0199C22.545 13.0199 21.925 12.4 21.925 11.625C21.925 10.85 22.545 10.23 23.32 10.23C24.095 10.23 24.715 10.85 24.715 11.625Z" fill="black"/>
</g>
<defs>
<filter id="filter0_d_1_463" x="-3" y="0" width="39" height="39" filterUnits="userSpaceOnUse" color-interpolation-filters="sRGB">
<feFlood flood-opacity="0" result="BackgroundImageFix"/>
<feColorMatrix in="SourceAlpha" type="matrix" values="0 0 0 0 0 0 0 0 0 0 0 0 0 0 0 0 0 0 127 0" result="hardAlpha"/>
<feOffset dy="4"/>
<feGaussianBlur stdDeviation="2"/>
<feComposite in2="hardAlpha" operator="out"/>
<feColorMatrix type="matrix" values="0 0 0 0 0 0 0 0 0 0 0 0 0 0 0 0 0 0 0.25 0"/>
<feBlend mode="normal" in2="BackgroundImageFix" result="effect1_dropShadow_1_463"/>
<feBlend mode="normal" in="SourceGraphic" in2="effect1_dropShadow_1_463" result="shape"/>
</filter>
</defs>
</svg>
