<svg width="29" height="29" viewBox="0 0 29 29" fill="none" xmlns="http://www.w3.org/2000/svg">
<path d="M8.05554 4.18884H22.5555V5.43745H8.05554V4.18884Z" fill="black"/>
<path d="M23.3611 6.44442H7.9428C7.73723 6.4415 7.53437 6.39698 7.34647 6.31354C7.15857 6.2301 6.98951 6.10946 6.8495 5.95891C6.70948 5.80836 6.60141 5.63101 6.5318 5.43755C6.46219 5.2441 6.43248 5.03855 6.44447 4.83331C6.44347 4.42485 6.59764 4.03127 6.87581 3.73217C7.15397 3.43307 7.53535 3.25079 7.9428 3.2222H23.3611C23.5748 3.2222 23.7797 3.13732 23.9308 2.98625C24.0818 2.83518 24.1667 2.63029 24.1667 2.41664C24.1667 2.20299 24.0818 1.9981 23.9308 1.84703C23.7797 1.69595 23.5748 1.61108 23.3611 1.61108H7.9428C7.10791 1.64032 6.31701 1.99267 5.73691 2.59381C5.15681 3.19496 4.83285 3.99791 4.83336 4.83331C4.82557 4.96476 4.82557 5.09657 4.83336 5.22803C4.8256 5.29224 4.8256 5.35715 4.83336 5.42136V24.1666C4.83285 25.002 5.15681 25.805 5.73691 26.4061C6.31701 27.0073 7.10791 27.3596 7.9428 27.3889H23.3611C23.5748 27.3889 23.7797 27.304 23.9308 27.1529C24.0818 27.0018 24.1667 26.797 24.1667 26.5833V7.45136V7.37886V7.30636C24.1672 7.0872 24.0841 6.87609 23.9345 6.71598C23.7848 6.55586 23.5798 6.45875 23.3611 6.44442Z" fill="black"/>
</svg>
