<svg width="29" height="29" viewBox="0 0 29 29" fill="none" xmlns="http://www.w3.org/2000/svg">
<path d="M12.3023 3.47998C4.97578 3.47998 0.579956 9.35712 0.579956 12.296C0.579956 15.2348 2.04504 17.4388 4.97578 17.4388C7.90652 17.4388 9.37218 18.1731 9.37218 20.3771C9.37218 23.3154 11.5698 25.5194 14.5005 25.5194C24.0253 25.5194 28.4205 20.3771 28.4205 15.2348C28.42 6.41884 21.0922 3.47998 12.3023 3.47998ZM10.4707 6.41884C10.7115 6.41915 10.95 6.46688 11.1723 6.55933C11.3947 6.65178 11.5967 6.78712 11.7668 6.95764C11.9369 7.12815 12.0717 7.33049 12.1636 7.55312C12.2555 7.77574 12.3026 8.01428 12.3023 8.25512C12.3023 9.27012 11.4822 10.092 10.4707 10.092C9.45918 10.092 8.63906 9.26954 8.63906 8.25512C8.63875 8.01428 8.68589 7.77574 8.77777 7.55312C8.86965 7.33049 9.00449 7.12815 9.17457 6.95764C9.34465 6.78712 9.54666 6.65178 9.76905 6.55933C9.99144 6.46688 10.2299 6.41915 10.4707 6.41884ZM16.331 6.41884C16.5719 6.41915 16.8103 6.46688 17.0327 6.55933C17.2551 6.65178 17.4571 6.78712 17.6271 6.95764C17.7972 7.12815 17.9321 7.33049 18.0239 7.55312C18.1158 7.77574 18.163 8.01428 18.1627 8.25512C18.163 8.49601 18.116 8.73461 18.0241 8.9573C17.9323 9.17999 17.7974 9.38241 17.6273 9.55298C17.4573 9.72356 17.2552 9.85895 17.0328 9.95144C16.8104 10.0439 16.5719 10.0917 16.331 10.092C16.0902 10.0916 15.8518 10.0438 15.6294 9.95127C15.407 9.85875 15.2051 9.72334 15.0351 9.55278C14.865 9.38221 14.7303 9.17982 14.6384 8.95717C14.5466 8.73452 14.4996 8.49596 14.5 8.25512C14.4993 7.76882 14.6919 7.30219 15.0353 6.95784C15.3786 6.61349 15.8447 6.41961 16.331 6.41884ZM22.1925 9.35712C22.4334 9.35735 22.672 9.40505 22.8945 9.4975C23.117 9.58995 23.319 9.72533 23.4892 9.89592C23.6594 10.0665 23.7942 10.2689 23.8861 10.4917C23.978 10.7144 24.0251 10.953 24.0247 11.194C24.0251 11.4349 23.978 11.6735 23.8861 11.8962C23.7942 12.1189 23.6593 12.3213 23.4892 12.4918C23.319 12.6624 23.1169 12.7977 22.8944 12.8901C22.6719 12.9825 22.4334 13.0301 22.1925 13.0303C21.9517 13.03 21.7132 12.9823 21.4908 12.8899C21.2684 12.7975 21.0665 12.6621 20.8964 12.4916C20.7264 12.3211 20.5916 12.1187 20.4998 11.896C20.408 11.6734 20.361 11.4348 20.3614 11.194C20.361 10.9531 20.408 10.7145 20.4998 10.4918C20.5916 10.2692 20.7263 10.0667 20.8964 9.89616C21.0664 9.72557 21.2684 9.59017 21.4908 9.49768C21.7132 9.40519 21.9516 9.35742 22.1925 9.35712ZM5.34234 10.8268C5.58312 10.8271 5.8215 10.8747 6.04385 10.9671C6.26621 11.0595 6.46818 11.1948 6.63822 11.3653C6.80827 11.5358 6.94305 11.7381 7.03488 11.9607C7.12671 12.1833 7.17378 12.4218 7.1734 12.6625C7.1734 13.6775 6.35328 14.4994 5.34234 14.4994C4.3314 14.4994 3.5107 13.677 3.5107 12.6625C3.51023 12.1762 3.70293 11.7097 4.04641 11.3654C4.3899 11.0212 4.85604 10.8275 5.34234 10.8268ZM14.5 18.1731C15.7139 18.1731 16.6976 19.1591 16.6976 20.3777C16.6976 21.5945 15.7139 22.5811 14.5 22.5811C13.286 22.5811 12.3023 21.5945 12.3023 20.3777C12.3018 20.0886 12.3582 19.8023 12.4684 19.535C12.5786 19.2678 12.7403 19.0248 12.9444 18.8201C13.1485 18.6154 13.3909 18.4529 13.6578 18.3418C13.9247 18.2308 14.2109 18.1735 14.5 18.1731Z" fill="black"/>
</svg>
