<svg width="48" height="48" viewBox="0 0 48 48" fill="none" xmlns="http://www.w3.org/2000/svg">
<rect width="48" height="48" rx="24" fill="white" fill-opacity="0.2"/>
<path d="M24 33C28.9706 33 33 28.9706 33 24C33 19.0294 28.9706 15 24 15C19.0294 15 15 19.0294 15 24C15 28.9706 19.0294 33 24 33Z" stroke="white" stroke-width="2" stroke-linecap="round" stroke-linejoin="round"/>
<path d="M18.6586 31.2441C19.9936 29.0325 21.8774 27.2033 24.1274 25.9341C26.3774 24.6648 28.9172 23.9985 31.5006 23.9998C32.0065 23.9998 32.5062 24.0244 32.9997 24.0737" stroke="white" stroke-width="2" stroke-linecap="round" stroke-linejoin="round"/>
<path d="M29.6277 16.9773C28.2224 18.7046 26.4494 20.0967 24.438 21.052C22.4265 22.0074 20.2273 22.502 18.0005 22.4998C17.052 22.5003 16.1056 22.4113 15.1738 22.2339" stroke="white" stroke-width="2" stroke-linecap="round" stroke-linejoin="round"/>
<path d="M20.056 15.908C22.3116 17.2314 24.1817 19.1218 25.4808 21.3914C26.7799 23.6611 27.4628 26.231 27.4616 28.8461C27.4625 30.0715 27.3135 31.2923 27.0181 32.4815" stroke="white" stroke-width="2" stroke-linecap="round" stroke-linejoin="round"/>
</svg>
