<svg width="80" height="80" viewBox="0 0 80 80" fill="none" xmlns="http://www.w3.org/2000/svg">
<path fill-rule="evenodd" clip-rule="evenodd" d="M40 0C17.9 0 0 18.3528 0 41.0118C0 58.3359 10.4343 73.0906 25.2134 79.1214C26.6194 79.6951 28.3946 80.5055 29.4992 79.4635C29.9194 79.0671 30.1 78.5018 30.1 77.9736V77.9736C30.1 74.0059 26.3331 71.3456 22.46 70.4845C18.5098 69.6062 17.1419 67.079 16.6 65.5163C16.15 64.3372 14.2 60.6974 12.5 59.7234C11.1 58.9544 9.1 57.0576 12.45 57.0063C15.6 56.9551 17.85 59.9797 18.6 61.21C21.7065 66.5628 26.414 65.9986 29.1241 65.0516C29.8402 64.8014 30.3438 63.8518 30.5341 63.1175V63.1175C31.0154 61.2599 29.7814 58.715 27.9244 58.2316C20.8026 56.3775 14.6 51.6697 14.6 38.8586C14.6 36.8024 14.9295 34.9096 15.5345 33.1852C16.8056 29.5627 17.9598 27.2362 17.8944 23.3978V23.3978C17.842 20.3222 20.964 16.6354 23.8379 17.7318C24.1756 17.8606 24.5323 18.0079 24.9084 18.1762C28.3737 19.7272 32.205 20.4349 35.9783 20.0156C37.3433 19.864 38.7217 19.7882 40.1 19.7882C41.4527 19.7882 42.8053 19.8612 44.1454 20.0073C47.9657 20.4236 51.8408 19.6913 55.3513 18.1276C55.7218 17.9625 56.0734 17.8182 56.4063 17.6922C59.2591 16.6125 62.3476 20.2942 62.3064 23.3442V23.3442C62.2541 27.2128 63.4188 29.5725 64.6875 33.2276C65.2785 34.9303 65.6 36.8041 65.6 38.8586C65.6 49.7684 61.1071 54.7906 55.3856 57.1869C52.4363 58.4221 50.05 63.4978 50.05 66.6954V66.6954C50.05 72.1807 50 76.5894 50 77.9736C50 79.0502 50.75 80.3318 52.75 79.9217C60.6906 77.1729 67.5906 71.9404 72.4789 64.9605C77.3672 57.9805 79.9976 49.6047 80 41.0118C80 18.3528 62.1 0 40 0Z" fill="#070C0E"/>
</svg>
