<svg width="75" height="88" viewBox="0 0 75 88" fill="none" xmlns="http://www.w3.org/2000/svg">
<path d="M37.5 5.86159C29.212 5.86159 21.2634 8.94938 15.4029 14.4457C9.5424 19.942 6.25 27.3966 6.25 35.1695C6.25 38.4068 8.87432 41.0311 12.1116 41.0311H12.5C14.1576 41.0311 15.7473 41.6487 16.9194 42.7479C18.0915 43.8472 18.75 45.3381 18.75 46.8927V64.4775C18.75 66.0321 18.0915 67.523 16.9194 68.6223C15.7473 69.7215 14.1576 70.3391 12.5 70.3391H6.25C4.5924 70.3391 3.00268 69.7215 1.83058 68.6223C0.65848 67.523 0 66.0321 0 64.4775V35.1695C-7.33818e-08 30.551 0.969966 25.9777 2.85452 21.7107C4.73907 17.4438 7.5013 13.5667 10.9835 10.3009C14.4657 7.03513 18.5997 4.44456 23.1494 2.67712C27.6991 0.909687 32.5754 0 37.5 0C42.4246 0 47.3009 0.909687 51.8506 2.67712C56.4003 4.44456 60.5343 7.03513 64.0165 10.3009C67.4987 13.5667 70.2609 17.4438 72.1455 21.7107C74.03 25.9777 75 30.551 75 35.1695V70.3391C75 74.2255 73.3538 77.9528 70.4235 80.701C67.4933 83.4491 63.519 84.993 59.375 84.993H49.2097C47.2383 84.993 45.4835 86.1998 43.7499 87.1385C42.7998 87.653 41.7221 87.9238 40.625 87.9238H34.375C32.7174 87.9238 31.1277 87.3063 29.9556 86.207C28.7835 85.1077 28.125 83.6168 28.125 82.0622C28.125 80.5077 28.7835 79.0167 29.9556 77.9175C31.1277 76.8182 32.7174 76.2007 34.375 76.2007H40.625C41.7221 76.2007 42.7998 76.4715 43.7499 76.986C45.4835 77.9247 47.2383 79.1314 49.2097 79.1314H59.375C61.8614 79.1314 64.246 78.2051 66.0041 76.5562C66.1853 76.3863 66.3583 76.2101 66.5229 76.0282C68.8391 73.4688 65.9518 70.3391 62.5 70.3391C60.8424 70.3391 59.2527 69.7215 58.0806 68.6223C56.9085 67.523 56.25 66.0321 56.25 64.4775V46.8927C56.25 45.3381 56.9085 43.8472 58.0806 42.7479C59.2527 41.6487 60.8424 41.0311 62.5 41.0311H62.8884C66.1257 41.0311 68.75 38.4068 68.75 35.1695C68.75 31.3208 67.9417 27.5097 66.3712 23.9539C64.8008 20.3981 62.4989 17.1672 59.5971 14.4457C56.6953 11.7242 53.2503 9.56539 49.4589 8.09252C45.6674 6.61966 41.6038 5.86159 37.5 5.86159Z" fill="black"/>
</svg>
