<svg width="160" height="24" viewBox="0 0 160 24" fill="none" xmlns="http://www.w3.org/2000/svg">
<path d="M4.98 1.748V12.668C4.98 13.76 5.24867 14.6007 5.786 15.19C6.32333 15.7793 7.112 16.074 8.152 16.074C9.192 16.074 9.98933 15.7793 10.544 15.19C11.0987 14.6007 11.376 13.76 11.376 12.668V1.748H15.822V12.642C15.822 14.2713 15.4753 15.6493 14.782 16.776C14.0887 17.9027 13.1527 18.752 11.974 19.324C10.8127 19.896 9.51267 20.182 8.074 20.182C6.63533 20.182 5.344 19.9047 4.2 19.35C3.07333 18.778 2.18067 17.9287 1.522 16.802C0.863333 15.658 0.534 14.2713 0.534 12.642V1.748H4.98ZM35.272 20H30.826L23.39 8.742V20H18.944V1.748H23.39L30.826 13.058V1.748H35.272V20ZM45.3328 1.748C47.2568 1.748 48.9381 2.12933 50.3768 2.892C51.8155 3.65467 52.9248 4.72933 53.7048 6.116C54.5021 7.48533 54.9008 9.07133 54.9008 10.874C54.9008 12.6593 54.5021 14.2453 53.7048 15.632C52.9248 17.0187 51.8068 18.0933 50.3508 18.856C48.9121 19.6187 47.2395 20 45.3328 20H38.4948V1.748H45.3328ZM45.0468 16.152C46.7281 16.152 48.0368 15.6927 48.9728 14.774C49.9088 13.8553 50.3768 12.5553 50.3768 10.874C50.3768 9.19267 49.9088 7.884 48.9728 6.948C48.0368 6.012 46.7281 5.544 45.0468 5.544H42.9408V16.152H45.0468ZM68.7474 16.776H61.9354L60.8434 20H56.1894L62.7934 1.748H67.9414L74.5454 20H69.8394L68.7474 16.776ZM67.6034 13.344L65.3414 6.662L63.1054 13.344H67.6034Z" fill="#FC4F4F"/>
<path d="M83.5991 20.182C83.0618 20.182 82.6111 20 82.2471 19.636C81.8831 19.272 81.7011 18.8213 81.7011 18.284C81.7011 17.7467 81.8831 17.296 82.2471 16.932C82.6111 16.568 83.0618 16.386 83.5991 16.386C84.1191 16.386 84.5611 16.568 84.9251 16.932C85.2891 17.296 85.4711 17.7467 85.4711 18.284C85.4711 18.8213 85.2891 19.272 84.9251 19.636C84.5611 20 84.1191 20.182 83.5991 20.182ZM103.812 23.6436H99.6738L97.4902 20.3682C97.3717 20.3851 97.2575 20.3936 97.1475 20.3936C97.0459 20.3936 96.9443 20.3936 96.8428 20.3936C95.9795 20.3936 95.1458 20.2793 94.3418 20.0508C93.5462 19.8307 92.7972 19.5176 92.0947 19.1113C91.4007 18.6966 90.766 18.2015 90.1904 17.626C89.6149 17.0505 89.1198 16.4157 88.7051 15.7217C88.2988 15.0192 87.9814 14.2702 87.7529 13.4746C87.5329 12.6706 87.4229 11.8369 87.4229 10.9736C87.4229 10.1104 87.5329 9.27669 87.7529 8.47266C87.9814 7.66862 88.2988 6.9196 88.7051 6.22559C89.1198 5.53158 89.6149 4.89681 90.1904 4.32129C90.766 3.74577 91.4007 3.25488 92.0947 2.84863C92.7972 2.44238 93.5462 2.12923 94.3418 1.90918C95.1458 1.68066 95.9795 1.56641 96.8428 1.56641C97.7061 1.56641 98.5397 1.68066 99.3438 1.90918C100.148 2.12923 100.897 2.44238 101.591 2.84863C102.285 3.25488 102.92 3.74577 103.495 4.32129C104.071 4.89681 104.562 5.53158 104.968 6.22559C105.374 6.9196 105.687 7.66862 105.907 8.47266C106.136 9.27669 106.25 10.1104 106.25 10.9736C106.25 11.8708 106.123 12.7425 105.869 13.5889C105.624 14.4352 105.272 15.2266 104.815 15.9629C104.358 16.6908 103.804 17.3509 103.152 17.9434C102.509 18.5358 101.79 19.0309 100.994 19.4287L103.812 23.6436ZM102.632 10.9736C102.632 10.1781 102.479 9.42904 102.175 8.72656C101.87 8.01562 101.455 7.40202 100.931 6.88574C100.414 6.361 99.8008 5.94629 99.0898 5.6416C98.3874 5.33691 97.6383 5.18457 96.8428 5.18457C96.0387 5.18457 95.2855 5.33691 94.583 5.6416C93.8805 5.94629 93.2669 6.361 92.7422 6.88574C92.2174 7.40202 91.8027 8.01562 91.498 8.72656C91.1934 9.42904 91.041 10.1781 91.041 10.9736C91.041 11.7692 91.1934 12.5182 91.498 13.2207C91.8027 13.9147 92.2174 14.5241 92.7422 15.0488C93.2669 15.5736 93.8805 15.9883 94.583 16.293C95.2855 16.5977 96.0387 16.75 96.8428 16.75C97.6383 16.75 98.3874 16.5977 99.0898 16.293C99.8008 15.9883 100.414 15.5736 100.931 15.0488C101.455 14.5241 101.87 13.9147 102.175 13.2207C102.479 12.5182 102.632 11.7692 102.632 10.9736ZM118.272 18.4131C117.993 18.667 117.693 18.9082 117.371 19.1367C117.058 19.3568 116.728 19.5514 116.381 19.7207C116.034 19.8815 115.674 20.0085 115.302 20.1016C114.938 20.2031 114.565 20.2539 114.185 20.2539C113.347 20.2539 112.56 20.1058 111.823 19.8096C111.087 19.5133 110.439 19.0944 109.881 18.5527C109.331 18.0026 108.895 17.3382 108.573 16.5596C108.26 15.7725 108.104 14.8923 108.104 13.9189V6.40332H111.557V13.9189C111.557 14.376 111.624 14.7865 111.76 15.1504C111.904 15.5059 112.094 15.8063 112.331 16.0518C112.568 16.2972 112.843 16.4834 113.156 16.6104C113.478 16.7373 113.821 16.8008 114.185 16.8008C114.54 16.8008 114.874 16.7204 115.188 16.5596C115.509 16.3903 115.788 16.1702 116.025 15.8994C116.262 15.6286 116.449 15.3239 116.584 14.9854C116.719 14.6383 116.787 14.2829 116.787 13.9189V6.40332H120.253V20H119.415L118.272 18.4131ZM128.314 16.6738C128.45 16.7161 128.585 16.7458 128.721 16.7627C128.856 16.7712 128.992 16.7754 129.127 16.7754C129.465 16.7754 129.791 16.7288 130.104 16.6357C130.418 16.5426 130.71 16.4115 130.98 16.2422C131.26 16.0645 131.505 15.8529 131.717 15.6074C131.937 15.3535 132.115 15.0742 132.25 14.7695L134.789 17.3213C134.467 17.7783 134.095 18.1888 133.672 18.5527C133.257 18.9167 132.804 19.2256 132.313 19.4795C131.831 19.7334 131.319 19.9238 130.777 20.0508C130.244 20.1862 129.694 20.2539 129.127 20.2539C128.171 20.2539 127.269 20.0762 126.423 19.7207C125.585 19.3652 124.849 18.8701 124.214 18.2354C123.588 17.6006 123.092 16.8473 122.729 15.9756C122.365 15.0954 122.183 14.1305 122.183 13.0811C122.183 12.0062 122.365 11.0244 122.729 10.1357C123.092 9.24707 123.588 8.48958 124.214 7.86328C124.849 7.23698 125.585 6.75033 126.423 6.40332C127.269 6.05632 128.171 5.88281 129.127 5.88281C129.694 5.88281 130.248 5.95052 130.79 6.08594C131.332 6.22135 131.844 6.41602 132.326 6.66992C132.817 6.92383 133.274 7.23698 133.697 7.60938C134.12 7.97331 134.493 8.38379 134.814 8.84082L128.314 16.6738ZM130.092 9.52637C129.931 9.46712 129.77 9.42904 129.609 9.41211C129.457 9.39518 129.296 9.38672 129.127 9.38672C128.653 9.38672 128.204 9.47559 127.781 9.65332C127.367 9.82259 127.003 10.068 126.689 10.3896C126.385 10.7113 126.144 11.1006 125.966 11.5576C125.788 12.0062 125.699 12.514 125.699 13.0811C125.699 13.208 125.703 13.3519 125.712 13.5127C125.729 13.6735 125.75 13.8385 125.775 14.0078C125.809 14.1686 125.847 14.3252 125.89 14.4775C125.932 14.6299 125.987 14.7653 126.055 14.8838L130.092 9.52637ZM144.031 20H136.109V16.5469H144.031C144.268 16.5469 144.471 16.4622 144.641 16.293C144.81 16.1237 144.895 15.9206 144.895 15.6836C144.895 15.4382 144.81 15.2773 144.641 15.2012C144.471 15.125 144.268 15.0869 144.031 15.0869H140.426C139.825 15.0869 139.262 14.9727 138.737 14.7441C138.213 14.5156 137.756 14.2067 137.366 13.8174C136.977 13.4196 136.668 12.9583 136.439 12.4336C136.219 11.9089 136.109 11.346 136.109 10.7451C136.109 10.1442 136.219 9.58138 136.439 9.05664C136.668 8.5319 136.977 8.07487 137.366 7.68555C137.756 7.29622 138.213 6.99154 138.737 6.77148C139.262 6.54297 139.825 6.42871 140.426 6.42871H147.446V9.88184H140.426C140.189 9.88184 139.986 9.96647 139.816 10.1357C139.647 10.305 139.562 10.5081 139.562 10.7451C139.562 10.9906 139.647 11.2021 139.816 11.3799C139.986 11.5492 140.189 11.6338 140.426 11.6338H144.031C144.624 11.6338 145.182 11.7354 145.707 11.9385C146.232 12.1331 146.689 12.4082 147.078 12.7637C147.467 13.1191 147.776 13.5465 148.005 14.0459C148.233 14.5452 148.348 15.0911 148.348 15.6836C148.348 16.2845 148.233 16.8473 148.005 17.3721C147.776 17.8883 147.467 18.3454 147.078 18.7432C146.689 19.1325 146.232 19.4414 145.707 19.6699C145.182 19.89 144.624 20 144.031 20ZM157.019 20C156.181 20 155.394 19.8434 154.657 19.5303C153.921 19.2087 153.273 18.7728 152.715 18.2227C152.165 17.6641 151.729 17.0166 151.407 16.2803C151.094 15.5439 150.938 14.7568 150.938 13.9189V9.88184H149.249V6.42871H150.938V0.995117H154.391V6.42871H159.646V9.88184H154.391V13.9189C154.391 14.2829 154.458 14.6257 154.594 14.9473C154.729 15.2604 154.915 15.5355 155.152 15.7725C155.389 16.0094 155.669 16.1999 155.99 16.3438C156.312 16.4792 156.655 16.5469 157.019 16.5469H159.646V20H157.019Z" fill="white"/>
</svg>
